<mxfile host="app.diagrams.net" modified="2024-04-15T14:37:57.272Z" agent="Mozilla/5.0 (Macintosh; Intel Mac OS X 10_15_7) AppleWebKit/537.36 (KHTML, like Gecko) Chrome/123.0.0.0 Safari/537.36" version="24.2.3" etag="b8sUFWhoAAHWJV6OVJbx" type="github">
  <diagram name="PÃ¡gina-1" id="1MkTyme_7WJyzQmy0kGP">
    <mxGraphModel>
      <root>
        <mxCell id="0" />
        <mxCell id="1" parent="0" />
      </root>
    </mxGraphModel>
  </diagram>
</mxfile>
